<?xml version="1.0" encoding="UTF-8" standalone="no"?>
<svg
   xmlns:dc="http://purl.org/dc/elements/1.1/"
   xmlns:cc="http://creativecommons.org/ns#"
   xmlns:rdf="http://www.w3.org/1999/02/22-rdf-syntax-ns#"
   xmlns:svg="http://www.w3.org/2000/svg"
   xmlns="http://www.w3.org/2000/svg"
   xmlns:sodipodi="http://sodipodi.sourceforge.net/DTD/sodipodi-0.dtd"
   xmlns:inkscape="http://www.inkscape.org/namespaces/inkscape"
   sodipodi:docname="cloud.svg"
   inkscape:version="1.0 (1.0+r73+1)"
   id="svg2485"
   version="1.1"
   viewBox="0 0 7.4271374 4.9244976"
   height="4.9244976mm"
   width="7.4271374mm">
  <defs
     id="defs2479" />
  <sodipodi:namedview
     inkscape:window-maximized="1"
     inkscape:window-y="0"
     inkscape:window-x="1920"
     inkscape:window-height="1052"
     inkscape:window-width="1920"
     showgrid="false"
     inkscape:document-rotation="0"
     inkscape:current-layer="layer1"
     inkscape:document-units="mm"
     inkscape:cy="-22.12244"
     inkscape:cx="-54.535887"
     inkscape:zoom="0.35"
     inkscape:pageshadow="2"
     inkscape:pageopacity="0.0"
     borderopacity="1.0"
     bordercolor="#666666"
     pagecolor="#ffffff"
     id="base" />
  <metadata
     id="metadata2482">
    <rdf:RDF>
      <cc:Work
         rdf:about="">
        <dc:format>image/svg+xml</dc:format>
        <dc:type
           rdf:resource="http://purl.org/dc/dcmitype/StillImage" />
        <dc:title></dc:title>
      </cc:Work>
    </rdf:RDF>
  </metadata>
  <g
     transform="translate(-120.26262,-154.0199)"
     id="layer1"
     inkscape:groupmode="layer"
     inkscape:label="Layer 1">
    <path
       id="path2277"
       d="m 121.28034,158.92948 c -0.37575,-0.0663 -0.7102,-0.31316 -0.88381,-0.65233 -0.0929,-0.18148 -0.13383,-0.35237 -0.13391,-0.55903 0,-0.31551 0.11328,-0.5946 0.33649,-0.82808 0.1661,-0.17374 0.30581,-0.2581 0.60351,-0.36443 l 0.0692,-0.0247 v -0.21788 c 0,-0.17487 0.003,-0.23274 0.0159,-0.29311 0.0529,-0.24506 0.16048,-0.44277 0.33661,-0.6187 0.18136,-0.18114 0.37411,-0.28651 0.6245,-0.34139 0.0701,-0.0154 0.11953,-0.0193 0.24402,-0.0193 0.23422,0 0.37118,0.0335 0.65183,0.15942 0.0786,0.0353 0.14483,0.0641 0.1473,0.0641 0.002,0 0.0393,-0.0723 0.0818,-0.16059 0.0895,-0.18607 0.1235,-0.24467 0.20757,-0.35827 0.23086,-0.31193 0.5721,-0.54213 0.9509,-0.64149 0.27122,-0.0711 0.59102,-0.0717 0.86135,-0.002 0.62771,0.1631 1.1158,0.66842 1.25429,1.2986 0.0313,0.1426 0.0399,0.24929 0.0344,0.43071 -0.006,0.1912 -0.0185,0.26813 -0.0802,0.48529 -0.0208,0.0733 -0.0365,0.13454 -0.0348,0.13602 0.0182,0.0159 0.21488,0.11222 0.27924,0.13672 0.0458,0.0174 0.11814,0.0492 0.16071,0.0706 0.34538,0.17357 0.58319,0.4834 0.66585,0.8675 0.0218,0.10144 0.0223,0.32943 0.001,0.43788 -0.0505,0.2559 -0.16918,0.47351 -0.35825,0.65696 -0.1884,0.18279 -0.40448,0.29247 -0.66607,0.33809 -0.11357,0.0198 -5.25632,0.0187 -5.36885,-0.001 z"
       style="fill:#666666;fill-opacity:1;stroke:none;stroke-width:0.999998;stroke-linecap:round;stroke-linejoin:miter;stroke-miterlimit:4;stroke-dasharray:none;stroke-opacity:1" />
  </g>
</svg>
