<?xml version="1.0" encoding="UTF-8" standalone="no"?>
<svg
   xmlns:dc="http://purl.org/dc/elements/1.1/"
   xmlns:cc="http://creativecommons.org/ns#"
   xmlns:rdf="http://www.w3.org/1999/02/22-rdf-syntax-ns#"
   xmlns:svg="http://www.w3.org/2000/svg"
   xmlns="http://www.w3.org/2000/svg"
   xmlns:sodipodi="http://sodipodi.sourceforge.net/DTD/sodipodi-0.dtd"
   xmlns:inkscape="http://www.inkscape.org/namespaces/inkscape"
   sodipodi:docname="min-arrow.svg"
   inkscape:version="1.0 (1.0+r73+1)"
   id="svg4892"
   version="1.1"
   viewBox="0 0 3.15976 4.92804"
   height="4.92804mm"
   width="3.15976mm">
  <defs
     id="defs4886" />
  <sodipodi:namedview
     inkscape:window-maximized="1"
     inkscape:window-y="0"
     inkscape:window-x="0"
     inkscape:window-height="1052"
     inkscape:window-width="1920"
     showgrid="false"
     inkscape:document-rotation="0"
     inkscape:current-layer="layer1"
     inkscape:document-units="mm"
     inkscape:cy="-333.5426"
     inkscape:cx="-499.74469"
     inkscape:zoom="0.35"
     inkscape:pageshadow="2"
     inkscape:pageopacity="0.0"
     borderopacity="1.0"
     bordercolor="#666666"
     pagecolor="#ffffff"
     id="base" />
  <metadata
     id="metadata4889">
    <rdf:RDF>
      <cc:Work
         rdf:about="">
        <dc:format>image/svg+xml</dc:format>
        <dc:type
           rdf:resource="http://purl.org/dc/dcmitype/StillImage" />
        <dc:title></dc:title>
      </cc:Work>
    </rdf:RDF>
  </metadata>
  <g
     transform="translate(-238.05745,-236.41648)"
     id="layer1"
     inkscape:groupmode="layer"
     inkscape:label="Layer 1">
    <path
       id="rect2285"
       style="fill:#57ddff;fill-opacity:1;stroke:none;stroke-width:0.999998;stroke-linecap:round;stroke-linejoin:miter;stroke-miterlimit:4;stroke-dasharray:none;stroke-opacity:1"
       d="m 239.63705,236.41951 c -0.2482,0 -0.44802,0.19981 -0.44802,0.44804 v 2.94712 l -0.36639,-0.3664 c -0.17553,-0.17552 -0.45802,-0.17552 -0.63355,0 -0.17552,0.17553 -0.17552,0.45855 0,0.63407 l 1.13067,1.13068 c 0,0 0,0 0,0 0.041,0.041 0.0903,0.0735 0.1447,0.0961 0.003,0 0.003,0.003 0.005,0.003 0.0122,0.005 0.0249,0.008 0.0372,0.0114 0.0148,0.005 0.0291,0.0101 0.0445,0.013 0.0285,0.006 0.0578,0.008 0.0868,0.008 0.007,0 0.013,-0.003 0.0196,-0.003 0.0153,0 0.0303,-0.003 0.0455,-0.004 0.007,0 0.0135,0 0.0201,-0.003 1.6e-4,-3e-5 0,3e-5 0,0 0.013,-0.003 0.0251,-0.008 0.0377,-0.0114 0.0145,-0.004 0.0297,-0.007 0.0439,-0.013 0.003,0 0.003,-0.003 0.005,-0.003 0.0262,-0.0108 0.0506,-0.0238 0.0739,-0.0393 0.0254,-0.0167 0.0494,-0.0359 0.0708,-0.0574 l 0.003,-0.003 1.12811,-1.12811 c 0.17552,-0.17552 0.17552,-0.45855 0,-0.63407 -0.17553,-0.17553 -0.45802,-0.17553 -0.63355,0 l -0.36639,0.36639 v -2.9471 c 0,-0.24823 -0.19979,-0.44805 -0.44805,-0.44805 z" />
  </g>
</svg>
