<?xml version="1.0" encoding="UTF-8" standalone="no"?>
<svg
   xmlns:dc="http://purl.org/dc/elements/1.1/"
   xmlns:cc="http://creativecommons.org/ns#"
   xmlns:rdf="http://www.w3.org/1999/02/22-rdf-syntax-ns#"
   xmlns:svg="http://www.w3.org/2000/svg"
   xmlns="http://www.w3.org/2000/svg"
   xmlns:sodipodi="http://sodipodi.sourceforge.net/DTD/sodipodi-0.dtd"
   xmlns:inkscape="http://www.inkscape.org/namespaces/inkscape"
   sodipodi:docname="peak-arrow.svg"
   inkscape:version="1.0 (1.0+r73+1)"
   id="svg3712"
   version="1.1"
   viewBox="0 0 3.159235 4.9240799"
   height="4.9240799mm"
   width="3.159235mm">
  <defs
     id="defs3706" />
  <sodipodi:namedview
     inkscape:window-maximized="1"
     inkscape:window-y="0"
     inkscape:window-x="0"
     inkscape:window-height="1052"
     inkscape:window-width="1920"
     showgrid="false"
     inkscape:document-rotation="0"
     inkscape:current-layer="layer1"
     inkscape:document-units="mm"
     inkscape:cy="-1013.5516"
     inkscape:cx="1091.6874"
     inkscape:zoom="0.35"
     inkscape:pageshadow="2"
     inkscape:pageopacity="0.0"
     borderopacity="1.0"
     bordercolor="#666666"
     pagecolor="#ffffff"
     id="base" />
  <metadata
     id="metadata3709">
    <rdf:RDF>
      <cc:Work
         rdf:about="">
        <dc:format>image/svg+xml</dc:format>
        <dc:type
           rdf:resource="http://purl.org/dc/dcmitype/StillImage" />
        <dc:title></dc:title>
      </cc:Work>
    </rdf:RDF>
  </metadata>
  <g
     transform="translate(183.00895,-416.33552)"
     id="layer1"
     inkscape:groupmode="layer"
     inkscape:label="Layer 1">
    <path
       id="rect2263"
       style="fill:#ff5555;fill-opacity:1;stroke:none;stroke-width:0.999998;stroke-linecap:round;stroke-linejoin:miter;stroke-miterlimit:4;stroke-dasharray:none;stroke-opacity:1"
       d="m -181.43001,416.33572 c -0.0297,0 -0.0591,0.003 -0.0884,0.009 -0.0146,0.003 -0.0283,0.008 -0.0424,0.0124 -0.0122,0.004 -0.0249,0.007 -0.0367,0.0114 0,0 -0.003,1.8e-4 -0.003,0 -0.0265,0.0108 -0.0518,0.0249 -0.0754,0.0403 0,2.1e-4 0,0 0,0 -0.0251,0.0167 -0.0489,0.036 -0.0703,0.0574 0,0 -0.003,0.003 -0.003,0.003 l -1.12809,1.12807 c -0.17553,0.17556 -0.17553,0.45802 0,0.63358 0.17552,0.17552 0.45802,0.17552 0.63354,0 l 0.3664,-0.3664 v 2.94712 c 0,0.24823 0.19981,0.44801 0.44802,0.44801 0.24825,0 0.44804,-0.19978 0.44804,-0.44801 v -2.94712 l 0.3664,0.3664 c 0.17552,0.17552 0.45802,0.17552 0.63354,0 0.17553,-0.17553 0.17553,-0.45802 0,-0.63358 l -1.1281,-1.12807 -0.003,-0.003 c -0.0212,-0.0212 -0.0447,-0.0402 -0.0698,-0.0568 -0.006,-0.004 -0.0135,-0.007 -0.0201,-0.0109 -0.0185,-0.0109 -0.0367,-0.0222 -0.0568,-0.0305 0,-2.1e-4 0,0 -0.003,0 0,-1.3e-4 0,1.1e-4 0,0 -0.006,-0.003 -0.0122,-0.004 -0.018,-0.006 -0.0201,-0.007 -0.0405,-0.0143 -0.062,-0.0185 0,-1.6e-4 -0.003,0 -0.003,0 -1.9e-4,-2e-5 0,3e-5 0,0 -0.028,-0.006 -0.0563,-0.008 -0.0847,-0.008 -1.6e-4,0 0,0 0,0 z" />
  </g>
</svg>
