<?xml version="1.0" encoding="UTF-8" standalone="no"?>
<svg
   xmlns:dc="http://purl.org/dc/elements/1.1/"
   xmlns:cc="http://creativecommons.org/ns#"
   xmlns:rdf="http://www.w3.org/1999/02/22-rdf-syntax-ns#"
   xmlns:svg="http://www.w3.org/2000/svg"
   xmlns="http://www.w3.org/2000/svg"
   xmlns:xlink="http://www.w3.org/1999/xlink"
   xmlns:sodipodi="http://sodipodi.sourceforge.net/DTD/sodipodi-0.dtd"
   xmlns:inkscape="http://www.inkscape.org/namespaces/inkscape"
   sodipodi:docname="sorted.svg"
   inkscape:version="1.0 (1.0+r73+1)"
   id="svg8"
   version="1.1"
   viewBox="0 0 154.40846 197.49301"
   height="197.49301mm"
   width="154.40846mm">
  <defs
     id="defs2">
    <linearGradient
       id="linearGradient917"
       inkscape:collect="always">
      <stop
         id="stop913"
         offset="0"
         style="stop-color:#4700b6;stop-opacity:1;" />
      <stop
         id="stop915"
         offset="1"
         style="stop-color:#4700b6;stop-opacity:0;" />
    </linearGradient>
    <linearGradient
       gradientTransform="matrix(0.26458333,0,0,0.26458333,0,25.2866)"
       gradientUnits="userSpaceOnUse"
       y2="857.74805"
       x2="76.341797"
       y1="226.84766"
       x1="72.445312"
       id="linearGradient919"
       xlink:href="#linearGradient917"
       inkscape:collect="always" />
  </defs>
  <sodipodi:namedview
     inkscape:window-maximized="1"
     inkscape:window-y="0"
     inkscape:window-x="1920"
     inkscape:window-height="1052"
     inkscape:window-width="1920"
     inkscape:snap-page="true"
     inkscape:snap-text-baseline="true"
     inkscape:snap-center="true"
     inkscape:snap-object-midpoints="true"
     inkscape:snap-midpoints="true"
     inkscape:snap-smooth-nodes="true"
     inkscape:snap-intersection-paths="true"
     inkscape:object-paths="true"
     inkscape:snap-bbox-midpoints="true"
     inkscape:snap-bbox-edge-midpoints="true"
     inkscape:bbox-nodes="true"
     inkscape:bbox-paths="true"
     inkscape:snap-bbox="true"
     showgrid="false"
     inkscape:document-rotation="0"
     inkscape:current-layer="layer1"
     inkscape:document-units="mm"
     inkscape:cy="525.57282"
     inkscape:cx="-59.838233"
     inkscape:zoom="0.24748737"
     inkscape:pageshadow="2"
     inkscape:pageopacity="0.0"
     borderopacity="1.0"
     bordercolor="#666666"
     pagecolor="#ffffff"
     id="base" />
  <metadata
     id="metadata5">
    <rdf:RDF>
      <cc:Work
         rdf:about="">
        <dc:format>image/svg+xml</dc:format>
        <dc:type
           rdf:resource="http://purl.org/dc/dcmitype/StillImage" />
        <dc:title></dc:title>
      </cc:Work>
    </rdf:RDF>
  </metadata>
  <g
     transform="translate(-9.8184065,-45.056664)"
     id="layer1"
     inkscape:groupmode="layer"
     inkscape:label="Layer 1">
    <rect
       ry="6.983387"
       rx="6.983387"
       y="45.056664"
       x="38.945595"
       height="58.803501"
       width="125.28128"
       id="rect833"
       style="fill:#ffffff;stroke-width:1;stroke-linecap:round" />
    <rect
       style="fill:#ffffff;fill-opacity:0.5;stroke-width:1;stroke-linecap:round"
       id="rect835"
       width="125.28128"
       height="58.803501"
       x="38.945595"
       y="114.2215"
       rx="6.983387"
       ry="6.983387" />
    <rect
       ry="6.983387"
       rx="6.983387"
       y="183.74617"
       x="38.945595"
       height="58.803501"
       width="125.28128"
       id="rect837"
       style="fill:#ffffff;fill-opacity:0.25;stroke-width:1;stroke-linecap:round" />
    <path
       sodipodi:nodetypes="ssccscccscscscsssssssssssssccscssscsccssssssssssssssscssssssccccsccss"
       d="m 19.167822,85.306709 c -1.127838,0 -2.036051,0.907696 -2.036051,2.035535 V 192.30731 l -3.512964,-6.08438 c -0.563915,-0.97673 -1.803973,-1.30909 -2.780709,-0.74518 -0.9767373,0.56392 -1.3090892,1.80398 -0.745174,2.78071 l 7.280175,12.61009 c 0.0052,0.01 0.01119,0.0188 0.01654,0.0284 l 0.01344,0.0233 c 0.0045,0.008 0.0099,0.0145 0.01447,0.0222 0.02848,0.048 0.05821,0.0952 0.09043,0.14056 0.0094,0.0132 0.01929,0.0258 0.02894,0.0388 0.03038,0.0407 0.0618,0.0806 0.09509,0.11886 0.01107,0.0127 0.02276,0.0248 0.03411,0.0372 0.03374,0.0369 0.06854,0.0727 0.104903,0.10697 0.01245,0.0118 0.02502,0.0232 0.03772,0.0346 0.03519,0.0316 0.07117,0.0619 0.108521,0.0909 0.01715,0.0134 0.03468,0.026 0.05219,0.0387 0.03447,0.0251 0.06935,0.0494 0.10542,0.0724 0.02045,0.013 0.04115,0.0255 0.06201,0.0377 0.03454,0.0203 0.0696,0.0396 0.10542,0.0579 0.02507,0.0128 0.05043,0.0245 0.07597,0.0362 0.03286,0.0151 0.06595,0.0296 0.09973,0.0429 0.02636,0.0104 0.05283,0.0202 0.07958,0.0294 0.03598,0.0125 0.07216,0.0241 0.109037,0.0346 0.03044,0.009 0.06117,0.016 0.09198,0.0233 0.03189,0.007 0.06366,0.0152 0.09612,0.0212 0.02999,0.006 0.0602,0.01 0.09043,0.0139 0.01553,0.002 0.03096,0.005 0.04651,0.007 0.01921,0.002 0.0385,0.004 0.05788,0.006 0.02805,0.002 0.05605,0.004 0.08423,0.005 0.0238,0.001 0.04754,0.002 0.07131,0.003 0.0077,8e-5 0.01506,0.001 0.02274,0.001 0.0082,0 0.01611,-0.001 0.02429,-0.001 0.02155,-2.6e-4 0.04302,-0.001 0.06459,-0.002 0.03038,-0.001 0.06072,-0.003 0.09095,-0.006 0.0192,-0.002 0.03832,-0.004 0.05736,-0.006 0.01294,-0.002 0.02583,-0.004 0.03876,-0.006 0.03286,-0.004 0.06561,-0.009 0.09819,-0.0155 0.02378,-0.004 0.04732,-0.009 0.0708,-0.0145 0.01009,-0.002 0.01994,-0.005 0.02997,-0.007 0.02842,-0.007 0.05665,-0.0137 0.08475,-0.0217 0.03847,-0.0109 0.0762,-0.0231 0.113688,-0.0362 0.02431,-0.008 0.04836,-0.0175 0.07235,-0.0269 0.03836,-0.015 0.076,-0.0313 0.113171,-0.0486 0.02026,-0.009 0.04049,-0.0189 0.06046,-0.0289 0.03799,-0.0192 0.07506,-0.0395 0.111621,-0.061 0.02194,-0.0129 0.04362,-0.0261 0.06511,-0.0398 0.03362,-0.0215 0.06648,-0.0438 0.0987,-0.0672 0.01912,-0.0139 0.03816,-0.0278 0.05684,-0.0424 0.037,-0.0288 0.07261,-0.0592 0.107487,-0.0904 0.01271,-0.0114 0.02527,-0.0229 0.03772,-0.0346 0.03636,-0.0343 0.07116,-0.0701 0.104903,-0.10697 0.01135,-0.0124 0.02303,-0.0244 0.03411,-0.0372 0.03203,-0.0368 0.06212,-0.0751 0.09147,-0.11421 0.01183,-0.0158 0.0237,-0.0313 0.03514,-0.0475 0.02527,-0.0358 0.04887,-0.0726 0.07183,-0.11007 3.17e-4,-5.3e-4 7.14e-4,-10e-4 10e-4,-0.002 3.97e-4,-5.3e-4 6.35e-4,-0.001 0.001,-0.002 0.0033,-0.005 0.0066,-0.0106 0.0098,-0.016 0.0059,-0.01 0.0128,-0.0189 0.0186,-0.0289 l 0.02584,-0.0444 c 3.71e-4,-8e-4 6.62e-4,-10e-4 0.001,-0.002 l 7.283276,-12.61525 c 0.56392,-0.97674 0.231564,-2.21679 -0.745175,-2.78071 -0.976736,-0.56392 -2.216787,-0.23156 -2.780707,0.74517 l -3.513481,6.08542 V 87.342138 c 0,-1.127839 -0.907696,-2.035535 -2.035535,-2.035535 z"
       style="fill:url(#linearGradient919);fill-opacity:1;stroke-width:0.999998;stroke-linecap:round"
       id="rect839" />
    <text
       id="text895"
       y="85.373131"
       x="93.119537"
       style="font-style:normal;font-variant:normal;font-weight:normal;font-stretch:normal;font-size:31.1849px;line-height:0;font-family:Acre;-inkscape-font-specification:Acre;letter-spacing:0px;word-spacing:0px;fill:#00ff00;fill-opacity:1;stroke:none;stroke-width:0.264583"
       xml:space="preserve"><tspan
         style="fill:#00ff00;stroke-width:0.264583"
         y="85.373131"
         x="93.119537"
         id="tspan893"
         sodipodi:role="line">0</tspan></text>
    <text
       xml:space="preserve"
       style="font-style:normal;font-variant:normal;font-weight:normal;font-stretch:normal;font-size:31.1849px;line-height:0;font-family:Acre;-inkscape-font-specification:Acre;letter-spacing:0px;word-spacing:0px;fill:#ff0000;fill-opacity:0.25;stroke:none;stroke-width:0.264583"
       x="79.647682"
       y="224.07823"
       id="text899"><tspan
         sodipodi:role="line"
         id="tspan897"
         x="79.647682"
         y="224.07823"
         style="fill:#ff0000;fill-opacity:0.25;stroke-width:0.264583">100</tspan></text>
  </g>
</svg>
